<?xml version="1.0" encoding="utf-8"?>
<!-- Generator: Adobe Illustrator 25.0.0, SVG Export Plug-In . SVG Version: 6.00 Build 0)  -->
<svg version="1.1" id="Camada_1" xmlns="http://www.w3.org/2000/svg" xmlns:xlink="http://www.w3.org/1999/xlink" x="0px" y="0px"
	 viewBox="0 0 595.3 841.9" style="enable-background:new 0 0 595.3 841.9;" xml:space="preserve">
<style type="text/css">
	.st0{fill:#FEFEFE;}
	.st1{fill:#FEE1AE;}
	.st2{fill:#FEE1AD;}
</style>
<g>
	<path class="st0" d="M583,745.9c-192,0-383.8,0-576,0c0-191.9,0-383.7,0-576c191.6,0,383.6,0,576,0C583,361.4,583,553.2,583,745.9z
		 M110.1,273.9c0,41.4,0.1,81,0,120.6c-0.1,40.1,9.8,77.2,33.8,109.6c44.2,59.7,102.9,89.8,177.7,78
		c100.2-15.8,158.5-91.5,160.8-191.5c0.8-33.9,0.2-67.8,0.1-101.7c0-5-0.5-10-0.8-15C357.2,273.9,234.6,273.9,110.1,273.9z
		 M507,638.9c0-8,0-14.4,0-21c-142.2,0-283.3,0-425,0c0,7.4,0,13.8,0,21C224,638.9,365.1,638.9,507,638.9z"/>
	<path class="st1" d="M110.1,273.9c124.6,0,247.2,0,371.6,0c0.3,5,0.8,10,0.8,15c0.1,33.9,0.7,67.8-0.1,101.7
		c-2.4,100-60.7,175.7-160.8,191.5c-74.9,11.8-133.5-18.3-177.7-78c-24-32.4-33.9-69.5-33.8-109.6
		C110.2,354.9,110.1,315.3,110.1,273.9z M135,408.9c2.8,60.4,32.1,103.5,81.7,132.3c56.7,32.9,121.3,29.8,180-15
		c37.7-28.8,58.4-68.2,60.1-117.3C348.8,408.9,243.1,408.9,135,408.9z M134,380.6c7.7,1.4,14.2,3.5,20.7,3.5
		c97.4,0.2,194.8,0.1,292.3,0.3c8.3,0,10.6-3.2,10.7-11c0.2-14.2,1.6-28.5,2.1-42.7c0.4-11.2,0.1-22.5,0.1-33.8
		c-110,0-217.6,0-325.9,0C134,325.1,134,352.1,134,380.6z"/>
	<path class="st2" d="M507,638.9c-141.9,0-283,0-425,0c0-7.2,0-13.6,0-21c141.7,0,282.8,0,425,0C507,624.5,507,630.9,507,638.9z"/>
	<path class="st0" d="M135,408.9c108.1,0,213.8,0,321.8,0c-1.6,49.1-22.4,88.5-60.1,117.3c-58.7,44.8-123.3,47.9-180,15
		C167.1,512.4,137.9,469.3,135,408.9z"/>
	<path class="st0" d="M134,380.6c0-28.5,0-55.5,0-83.7c108.3,0,215.9,0,325.9,0c0,11.3,0.3,22.5-0.1,33.8
		c-0.5,14.2-1.9,28.5-2.1,42.7c-0.1,4.3-0.8,7.2-2.8,9c-0.3,0.3-0.6,0.5-1,0.7c-1.6,0.9-3.8,1.4-6.9,1.4
		C349.6,384.2,141.7,382,134,380.6z"/>
</g>
<polygon class="st0" points="456.8,384.8 439,384.7 459.5,297.3 459.6,384.8 "/>
<polyline class="st0" points="133.7,384.8 133.7,297.3 175.4,384.5 "/>
</svg>
